<svg xmlns="http://www.w3.org/2000/svg" viewBox="0 0 440 160" width="440" height="160" fill="none" role="img" aria-label="ClaimFarm - Turns a farmer's WhatsApp crop photo into a filed insurance claim.">
  <defs><clipPath id="k2"><rect width="440" height="160" rx="10"/></clipPath><style>
  .serif{font:400 22px Georgia,"Times New Roman",serif}
  .sans{font:700 22px -apple-system,"Segoe UI",Roboto,Helvetica,Arial,sans-serif}
  .mono{font:600 11px ui-monospace,"SF Mono",Menlo,Consolas,monospace;letter-spacing:.5px}
.title{font:700 23px -apple-system,"Segoe UI",Roboto,Arial,sans-serif}.blurb{font:400 12.5px -apple-system,"Segoe UI",Roboto,Arial,sans-serif}</style></defs>
  <g clip-path="url(#k2)">
  <rect width="440" height="160" rx="10" fill="#0d1117"/>
  <rect x="0.5" y="0.5" width="439" height="159" rx="10" fill="none" stroke="#30363d"/>
  <rect x="0" y="0" width="440" height="2.5" fill="#e3b341" opacity="0.15"/>
  <rect y="0" width="80" height="2.5" fill="#e3b341"><animate attributeName="x" values="-80;440" dur="4.3s" repeatCount="indefinite"/></rect>
  <text x="22" y="30" class="mono" fill="#e3b341" style="letter-spacing:1.5px;font-weight:700">02 · HACKATHON · QWEN TRACK 4</text>
  <text x="22" y="62" class="title" fill="#e6edf3">ClaimFarm</text>
  <text x="22" y="88" class="blurb" fill="#8b949e">Turns a farmer's WhatsApp crop</text><text x="22" y="105" class="blurb" fill="#8b949e">photo into a filed insurance</text><text x="22" y="122" class="blurb" fill="#8b949e">claim.</text>
  <text x="22" y="140" class="mono" fill="#8b949e" style="font-size:10.5px;letter-spacing:1px">VISION-GROUNDED · AGENTIC PIPELINE</text>
  <g transform="translate(305,48)">
    <rect x="0" y="8" width="46" height="52" rx="5" fill="none" stroke="#30363d"/>
    <circle cx="14" cy="24" r="4" fill="#e3b341"/>
    <path d="M6 52 L20 36 L30 46 L40 32 L40 52 Z" fill="#8b949e" opacity="0.5"/>
    <rect x="2" y="8" width="42" height="3" fill="#e3b341" opacity="0.9"><animate attributeName="y" values="8;57;8" dur="3s" repeatCount="indefinite"/></rect>
    <path d="M52 34 h22" stroke="#8b949e" stroke-width="1.5" marker-end=""/>
    <path d="M68 30 l6 4 l-6 4" fill="none" stroke="#8b949e" stroke-width="1.5"/>
    <rect x="80" y="8" width="40" height="52" rx="5" fill="none" stroke="#30363d"/>
    <g stroke="#8b949e" stroke-width="2" opacity="0.6"><path d="M87 20 h26"/><path d="M87 30 h26"/><path d="M87 40 h18"/></g>
    <path d="M86 50 l5 5 l9 -11" fill="none" stroke="#e3b341" stroke-width="2.5" stroke-dasharray="24" stroke-dashoffset="24"><animate attributeName="stroke-dashoffset" values="24;24;0;0;24" keyTimes="0;0.55;0.72;0.9;1" dur="3s" repeatCount="indefinite"/></path></g>
  </g>
</svg>